<svg width="509" height="183" viewBox="0 0 509 183" fill="none" xmlns="http://www.w3.org/2000/svg">
<path d="M41.426 39.5576C44.8404 35.823 50.6054 32.5117 55.078 31.7159C55.9428 31.5622 58.6651 31.2057 61.1278 31.2515C65.0851 31.325 66.7994 31.9396 68.292 32.4477C71.4544 33.5242 73.2535 34.7835 75.089 36.7839C79.6046 41.705 80.2458 48.7973 76.792 55.624C75.6168 57.9476 74.2538 59.7335 73.1338 60.4175C70.518 62.0153 67.2511 60.0939 67.2484 56.9557C67.2475 56.0256 67.5538 55.2777 68.5717 53.7253C72.1123 48.3248 71.7356 43.5609 67.5699 41.0582C65.3968 39.7528 63.8323 39.1564 59.7019 39.3218C55.9705 39.4712 52.8932 40.2037 49.7019 42.6113C45.1437 46.0498 43.606 50.2354 45.3574 53.6281C46.1568 55.1772 49.035 57.9718 51.2645 59.3642C54.4424 61.3484 57.669 62.7569 66.3517 65.9505C75.2974 69.2406 81.5732 71.8499 84.8592 73.6447C91.0807 77.0438 95.0768 80.6285 97.0088 84.5451C97.7153 85.9776 98.1425 86.8894 98.1293 90.2982C98.1135 94.3387 97.658 95.8118 95.3306 99.3472C92.4174 103.772 87.7234 108.02 80.3816 112.876C66.2774 122.204 54.483 125.883 44.9212 123.937C37.9875 122.526 32.1914 117.214 29.9553 110.221C25.7929 97.2024 30.8642 81.9805 41.8741 74.4462C43.6227 73.2494 44.6272 72.9649 45.5228 72.9649C46.4183 72.9649 47.3589 73.1905 48.315 74.2354C49.1663 75.166 49.4034 76.4039 49.3368 76.7175C49.4034 77.8992 48.7586 79.5513 46.8117 80.8465C42.512 83.7063 39.5039 87.8424 37.752 93.3043C34.9335 102.091 37.1383 111.282 42.8699 114.641C46.8174 116.953 52.7389 116.918 59.8284 114.538C67.6093 111.926 79.249 104.76 85.2425 98.8902C93.0631 91.2316 91.7777 86.3502 80.3974 80.487C76.1025 78.274 73.6108 77.2429 63.6651 73.5628C51.2544 68.9703 48.3651 67.5564 43.7099 63.7988C35.2024 56.9321 34.2997 47.352 41.426 39.5576Z" fill="black"/>
<path fill-rule="evenodd" clip-rule="evenodd" d="M139.458 47.0349C132.953 48.1036 128.303 50.3264 124.749 54.0672C121.525 57.4598 120.403 60.3725 120.403 65.3559C120.403 70.1319 121.537 73.2564 124.336 76.1952C128.365 80.4253 133.141 81.9772 146.522 83.4028C156.592 84.4758 158.931 84.9746 160.925 86.4739C162.757 87.8516 163.189 90.795 161.864 92.8711C160.018 95.7639 154.478 97.3972 147.752 97.0316C142.208 96.73 139.126 95.5459 136.382 92.6625C135.157 91.375 134.621 90.557 134.339 89.545L133.958 88.173H126.733H119.508L119.691 89.8159C120.658 98.5106 127.821 105.155 139.137 107.855C142.274 108.603 151.588 108.923 155.288 108.409C162.441 107.415 168.2 104.749 172.118 100.616C176.197 96.313 177.806 90.5717 176.607 84.596C175.79 80.5244 173.777 77.7445 170.248 75.8151C166.165 73.5831 162.51 72.7588 150.212 71.2967C138.92 69.9543 136.81 69.385 135.334 67.2844C134.531 66.1401 134.531 63.417 135.334 62.2721C136.402 60.7509 138.053 59.6799 140.409 58.9804C142.356 58.4019 143.317 58.3017 146.932 58.3002C150.5 58.2988 151.509 58.4005 153.307 58.9426C156.106 59.7874 157.781 60.7076 159.149 62.152C160.155 63.214 160.492 63.8171 160.982 65.4281C161.124 65.8926 161.718 65.9336 168.293 65.9336H175.45L175.274 64.3511C174.319 55.7681 165.992 48.875 154.316 47.0026C151.04 46.4769 142.743 46.4951 139.458 47.0349ZM208.001 47.1484C195.304 49.5084 186.269 57.8595 183.376 69.9087C183.014 71.4178 182.908 73.1504 182.904 77.631C182.899 83.0169 182.947 83.5937 183.628 86.164C184.583 89.7763 185.446 91.7865 187.309 94.7441C191.947 102.105 199.82 106.962 209.395 108.368C212.468 108.82 220.18 108.756 223.107 108.254C235.271 106.171 244.29 98.7717 247.761 88.0286C248.737 85.0078 249.217 81.5795 249.217 77.631C249.217 68.5419 246.701 61.9986 240.887 55.9691C236.171 51.079 229.88 48.0059 222.308 46.8937C218.979 46.4047 211.262 46.5422 208.001 47.1484ZM257.213 67.4499C257.291 85.1782 257.348 87.3366 257.778 88.8951C259.978 96.8823 264.571 102.579 271.558 105.989C275.356 107.842 278.222 108.445 283.986 108.606C289.961 108.772 292.836 108.373 297.003 106.8C304.947 103.802 310.5 97.5786 312.722 89.1839C313.323 86.9135 313.335 86.5345 313.423 67.3055L313.511 46.5973H299.288L299.204 66.2946C299.121 84.509 299.109 84.8819 298.528 86.4984C296.421 92.3616 292.878 94.9047 286.274 95.292C278.625 95.7405 273.434 92.2105 271.788 85.4408C271.434 83.9857 271.369 80.9371 271.369 65.7285V46.5973H257.127L257.213 67.4499ZM323.879 77.631V107.524H349.04H374.201V100.881V94.2384H356.151H338.101V70.988V47.7376H330.99H323.879V77.631ZM415.399 48.5319C415.187 48.9686 409.325 62.3233 402.372 78.2086C395.419 94.0939 389.675 107.188 389.608 107.308C389.54 107.427 392.925 107.524 397.131 107.524H404.777L407.314 101.457L409.85 95.3887L425.015 95.4635L440.179 95.5381L442.675 101.525L445.171 107.512L452.777 107.518C456.96 107.521 460.334 107.427 460.276 107.308C460.217 107.188 454.34 93.7367 447.217 77.4143L434.264 47.7376H425.025H415.785L415.399 48.5319ZM466.093 77.631V107.524H473.204H480.315V77.631V47.7376H473.204H466.093V77.631ZM419.952 71.2144L414.982 83.1186L424.854 83.1946C430.284 83.2362 434.775 83.2191 434.834 83.1565C434.924 83.0617 425.701 60.7798 425.112 59.6687C425.004 59.4659 422.767 64.4727 419.952 71.2144ZM211.896 60.1692C207.462 60.9069 204.197 62.569 201.488 65.468C200.433 66.5979 199.23 68.1948 198.816 69.0168C196.395 73.8205 196.394 81.4368 198.815 86.2451C199.943 88.4853 203.321 91.937 205.458 93.034C208.766 94.7314 211.075 95.2059 215.988 95.1981C220.906 95.1906 223.259 94.7068 226.517 93.0331C228.907 91.8053 231.868 88.6788 233.045 86.1383C234.794 82.3648 235.334 78.2086 234.617 74.0287C233.457 67.2607 229.105 62.5662 222.278 60.7203C219.748 60.0364 214.402 59.7524 211.896 60.1692Z" fill="black"/>
<path d="M312.463 156.659V144.127H317.099C317.971 144.127 318.699 144.27 319.283 144.556C319.868 144.831 320.304 145.213 320.59 145.702C320.889 146.179 321.038 146.723 321.038 147.331C321.038 147.964 320.901 148.495 320.626 148.925C320.352 149.354 319.988 149.688 319.534 149.927C319.093 150.154 318.615 150.285 318.102 150.321L318.353 150.142C318.902 150.154 319.403 150.303 319.856 150.59C320.31 150.864 320.668 151.234 320.931 151.7C321.193 152.165 321.324 152.678 321.324 153.239C321.324 153.884 321.169 154.468 320.859 154.994C320.549 155.507 320.089 155.913 319.48 156.211C318.872 156.509 318.126 156.659 317.243 156.659H312.463ZM314.253 155.173H317.01C317.798 155.173 318.406 154.994 318.836 154.636C319.277 154.266 319.498 153.746 319.498 153.078C319.498 152.422 319.272 151.896 318.818 151.503C318.376 151.109 317.762 150.912 316.974 150.912H314.253V155.173ZM314.253 149.533H316.902C317.654 149.533 318.227 149.36 318.621 149.014C319.015 148.656 319.212 148.167 319.212 147.546C319.212 146.949 319.015 146.478 318.621 146.132C318.227 145.774 317.636 145.595 316.849 145.595H314.253V149.533ZM323.692 160.597L325.894 155.656H325.375L321.812 147.636H323.746L326.575 154.188L329.421 147.636H331.301L325.572 160.597H323.692Z" fill="black"/>
<path d="M347.378 137.077C349.926 137.077 352.153 137.537 354.059 138.458C355.984 139.378 357.482 140.661 358.552 142.306C359.621 143.951 360.156 145.88 360.156 148.093C360.156 150.287 359.621 152.216 358.552 153.881C357.482 155.526 355.984 156.808 354.059 157.729C352.153 158.649 349.926 158.936 347.378 158.936H336.992V137.077H347.378ZM341.923 157.141L339.414 154.703H347.757C349.235 154.703 350.529 154.429 351.637 153.881C352.766 153.332 353.631 152.559 354.234 151.56C354.837 150.561 355.138 149.405 355.138 148.093C355.138 146.762 354.837 145.606 354.234 144.627C353.631 143.628 352.766 142.854 351.637 142.306C350.529 141.758 349.235 141.483 347.757 141.483H339.414L341.923 139.045V157.141Z" fill="black"/>
<path d="M371.617 158.936C369.669 158.936 367.923 158.577 366.38 157.858C364.856 157.12 363.65 156.09 362.763 154.769C361.895 153.448 361.461 151.913 361.461 150.165C361.461 148.436 361.876 146.921 362.705 145.619C363.554 144.318 364.711 143.307 366.177 142.589C367.643 141.85 369.312 141.481 371.183 141.481C373.092 141.481 374.732 141.909 376.101 142.763C377.471 143.599 378.522 144.784 379.255 146.318C380.008 147.853 380.384 149.66 380.384 151.738H365.338V148.504H377.78L375.899 149.67C375.822 148.698 375.581 147.873 375.175 147.193C374.79 146.513 374.259 145.988 373.584 145.619C372.909 145.25 372.118 145.066 371.212 145.066C370.228 145.066 369.369 145.269 368.636 145.677C367.923 146.066 367.363 146.62 366.958 147.338C366.572 148.038 366.38 148.863 366.38 149.815C366.38 150.961 366.63 151.943 367.132 152.758C367.633 153.574 368.366 154.196 369.331 154.623C370.295 155.051 371.462 155.264 372.832 155.264C374.066 155.264 375.311 155.09 376.564 154.74C377.818 154.371 378.947 153.856 379.95 153.196V156.459C378.869 157.236 377.606 157.848 376.159 158.295C374.732 158.722 373.218 158.936 371.617 158.936Z" fill="black"/>
<path d="M401.752 151.738C401.556 153.157 400.998 154.41 400.078 155.497C399.177 156.585 398.011 157.43 396.582 158.033C395.152 158.635 393.556 158.936 391.793 158.936C389.796 158.936 388.033 158.577 386.505 157.858C384.997 157.12 383.812 156.09 382.951 154.769C382.109 153.448 381.688 151.933 381.688 150.223C381.688 148.494 382.109 146.979 382.951 145.677C383.812 144.356 384.997 143.327 386.505 142.589C388.033 141.85 389.796 141.481 391.793 141.481C393.556 141.481 395.152 141.792 396.582 142.414C398.011 143.016 399.177 143.861 400.078 144.949C400.998 146.017 401.556 147.27 401.752 148.708H396.846C396.592 147.581 396.004 146.717 395.083 146.115C394.183 145.493 393.086 145.182 391.793 145.182C390.755 145.182 389.844 145.386 389.061 145.794C388.297 146.183 387.71 146.756 387.299 147.513C386.887 148.251 386.682 149.155 386.682 150.223C386.682 151.272 386.887 152.176 387.299 152.933C387.71 153.671 388.297 154.244 389.061 154.652C389.844 155.041 390.755 155.235 391.793 155.235C393.105 155.235 394.212 154.915 395.113 154.274C396.033 153.633 396.611 152.788 396.846 151.738H401.752Z" fill="black"/>
<path d="M422.96 151.738C422.766 153.157 422.212 154.41 421.299 155.497C420.406 156.585 419.25 157.43 417.832 158.033C416.414 158.635 414.83 158.936 413.082 158.936C411.101 158.936 409.352 158.577 407.837 157.858C406.341 157.12 405.166 156.09 404.312 154.769C403.476 153.448 403.059 151.933 403.059 150.223C403.059 148.494 403.476 146.979 404.312 145.677C405.166 144.356 406.341 143.327 407.837 142.589C409.352 141.85 411.101 141.481 413.082 141.481C414.83 141.481 416.414 141.792 417.832 142.414C419.25 143.016 420.406 143.861 421.299 144.949C422.212 146.017 422.766 147.27 422.96 148.708H418.094C417.841 147.581 417.259 146.717 416.346 146.115C415.452 145.493 414.364 145.182 413.082 145.182C412.053 145.182 411.149 145.386 410.372 145.794C409.615 146.183 409.032 146.756 408.624 147.513C408.216 148.251 408.012 149.155 408.012 150.223C408.012 151.272 408.216 152.176 408.624 152.933C409.032 153.671 409.615 154.244 410.372 154.652C411.149 155.041 412.053 155.235 413.082 155.235C414.384 155.235 415.481 154.915 416.375 154.274C417.288 153.633 417.861 152.788 418.094 151.738H422.96Z" fill="black"/>
<path d="M440.491 158.925L439.78 152.438L440.579 150.223L439.78 148.038L440.491 141.918H445.146V158.925H440.491ZM441.793 150.223C441.477 151.972 440.895 153.506 440.047 154.827C439.217 156.129 438.161 157.139 436.878 157.858C435.615 158.577 434.194 158.936 432.615 158.936C430.977 158.936 429.526 158.577 428.263 157.858C426.999 157.12 426.013 156.1 425.302 154.798C424.611 153.477 424.266 151.952 424.266 150.223C424.266 148.475 424.611 146.95 425.302 145.648C426.013 144.327 426.999 143.307 428.263 142.589C429.526 141.85 430.977 141.481 432.615 141.481C434.194 141.481 435.615 141.841 436.878 142.56C438.161 143.278 439.227 144.298 440.076 145.619C440.925 146.921 441.497 148.455 441.793 150.223ZM429.269 150.223C429.269 151.195 429.467 152.049 429.862 152.788C430.276 153.526 430.839 154.108 431.549 154.536C432.26 154.944 433.079 155.148 434.007 155.148C434.934 155.148 435.803 154.944 436.612 154.536C437.441 154.108 438.171 153.526 438.803 152.788C439.435 152.049 439.928 151.195 440.283 150.223C439.928 149.252 439.435 148.397 438.803 147.659C438.171 146.901 437.441 146.318 436.612 145.911C435.803 145.483 434.934 145.269 434.007 145.269C433.079 145.269 432.26 145.483 431.549 145.911C430.839 146.318 430.276 146.901 429.862 147.659C429.467 148.397 429.269 149.252 429.269 150.223Z" fill="black"/>
<path d="M447.754 142.085H451.633L452.699 148.449V158.926H447.754V147.716V142.085ZM459.126 141.645C460.725 141.645 462.088 141.967 463.213 142.613C464.338 143.238 465.197 144.138 465.789 145.311C466.382 146.484 466.677 147.882 466.677 149.505V158.926H461.732V150.238C461.732 148.733 461.367 147.599 460.637 146.836C459.906 146.054 458.839 145.663 457.438 145.663C456.49 145.663 455.651 145.878 454.92 146.308C454.209 146.719 453.658 147.295 453.262 148.038C452.887 148.781 452.699 149.671 452.699 150.707L451.071 149.857C451.268 148.097 451.742 146.611 452.492 145.399C453.242 144.187 454.189 143.258 455.336 142.613C456.481 141.967 457.744 141.645 459.126 141.645Z" fill="black"/>
<path d="M471.467 143.887V142.115H476.752V143.887H471.467ZM475.405 136.903L478.935 145.647H476.883L473.853 137.824H474.445L471.425 145.647H469.375L472.905 136.903H475.405ZM479.714 136.903H481.642V145.647H479.714V136.903Z" fill="black"/>
</svg>
